#!OML:ASF E:\inclinewalkrobotboard\Project 1\Capture day 1\Session 1\subject1.ASF
:FULLY-SPECIFIED
:DEGREES
279
root 8.26993 17.1616 3.31228 -149.382 -39.926 155.515
lowerback -4.55187 0.295903 -8.16336
upperback -4.38768 0.463229 3.60818
thorax -2.14737 0.427892 8.42973
lowerneck -8.97926 3.35539 -0.740282
upperneck -1.91251 4.26653 -10.8496
head 1.20195 1.73807 -3.22355
rclavicle -9.93923e-016 9.54166e-014
rhumerus -0.792862 -28.4526 -87.1255
rradius 49.1841
rwrist -52.4196
rhand -3.02131 -25.4074
rfingers 7.12502
rthumb 22.6935 -54.093
lclavicle -9.93923e-016 9.54166e-014
lhumerus 55.527 20.3406 32.2523
lradius 64.1872
lwrist -24.8653
lhand -42.8269 -37.4193
lfingers 7.12502
lthumb -15.6917 -8.03557
rfemur -9.79068 7.60672 0.141286
rtibia 1.50155
rfoot -11.168 -12.9664
rtoes -10.3504
lfemur -6.63066 -5.71477 -16.166
ltibia 14.5226
lfoot 0 0
ltoes 0
280
root 8.27178 17.1597 3.31281 -149.451 -39.943 155.568
lowerback -4.52245 0.313516 -8.12081
upperback -4.36536 0.485514 3.59369
thorax -2.14347 0.437403 8.38941
lowerneck -8.63126 3.32256 -0.737323
upperneck -2.36948 4.14956 -10.9773
head 0.989795 1.70031 -3.27612
rclavicle -6.26172e-014 -1.01778e-013
rhumerus -1.10456 -28.5239 -87.0322
rradius 49.2591
rwrist -52.0184
rhand -1.91148 -24.3815
rfingers 7.12502
rthumb 23.7583 -52.9328
lclavicle -6.26172e-014 -1.01778e-013
lhumerus 55.2887 20.3465 31.9893
lradius 64.3908
lwrist -24.8233
lhand -42.6857 -37.4452
lfingers 7.12502
lthumb -15.5556 -8.05087
rfemur -9.73932 7.56615 0.212299
rtibia 1.48021
rfoot -11.0722 -12.927
rtoes -10.5404
lfemur -6.58933 -5.74283 -16.13
ltibia 14.5085
lfoot 0 0
ltoes 0
281
root 8.27465 17.1575 3.31484 -149.452 -40.0788 155.718
lowerback -4.60467 0.290918 -7.97612
upperback -4.3791 0.454237 3.63487
thorax -2.10275 0.415521 8.34947
lowerneck -8.3026 3.30807 -0.812091
upperneck -2.83917 4.06451 -10.9674
head 0.77288 1.68287 -3.26566
rclavicle -6.10269e-014 -5.08889e-014
rhumerus -1.28441 -28.5181 -86.9442
rradius 49.3777
rwrist -52.3146
rhand -2.43969 -24.7531
rfingers 7.12502
rthumb 23.2516 -53.3693
lclavicle -6.10269e-014 -5.08889e-014
lhumerus 55.1899 20.3775 31.9371
lradius 64.4406
lwrist -24.9121
lhand -42.5082 -37.7077
lfingers 7.12502
lthumb -15.3847 -8.30013
rfemur -9.78268 7.6854 0.386429
rtibia 1.38789
rfoot -11.048 -13.0982
rtoes -10.3581
lfemur -6.75786 -5.76416 -15.9096
ltibia 14.5676
lfoot 0 0
ltoes 0
282
root 8.27887 17.1576 3.31632 -149.562 -40.1399 155.896
lowerback -4.58337 0.293394 -7.85967
upperback -4.36531 0.45291 3.68781
thorax -2.098 0.411553 8.33868
lowerneck -8.30243 3.24739 -1.01723
upperneck -2.95329 3.98543 -10.7873
head 0.720311 1.65159 -3.16869
rclavicle -2.50469e-014 -3.18055e-014
rhumerus -1.47245 -28.5526 -86.8109
rradius 49.3269
rwrist -51.9923
rhand -2.19049 -25.2638
rfingers 7.12502
rthumb 23.4907 -53.8496
lclavicle -2.50469e-014 -3.18055e-014
lhumerus 55.1752 20.3868 31.9658
lradius 64.3823
lwrist -24.9632
lhand -42.7183 -37.9414
lfingers 7.12502
lthumb -15.587 -8.54948
rfemur -9.78436 7.79884 0.567566
rtibia 1.32666
rfoot -11.0466 -13.1714
rtoes -10.1517
lfemur -6.80219 -5.68614 -15.6985
ltibia 14.5983
lfoot 0 0
ltoes 0
283
root 8.27955 17.1585 3.31574 -149.717 -40.0908 155.961
lowerback -4.4837 0.309351 -7.843
upperback -4.30903 0.472235 3.68992
thorax -2.09783 0.420667 8.33082
lowerneck -8.34895 3.2303 -1.09774
upperneck -3.01456 3.96237 -10.7086
head 0.70276 1.64202 -3.12732
rclavicle -5.46658e-014 8.26944e-014
rhumerus -1.79218 -28.4214 -86.6528
rradius 49.5473
rwrist -52.18
rhand -2.40208 -25.6986
rfingers 7.12502
rthumb 23.2877 -54.3103
lclavicle -5.46658e-014 8.26944e-014
lhumerus 55.177 20.3868 31.9581
lradius 64.2826
lwrist -24.9282
lhand -43.2658 -37.7661
lfingers 7.12502
lthumb -16.1143 -8.41605
rfemur -9.67966 7.72206 0.631604
rtibia 1.30938
rfoot -10.9789 -13.0315
rtoes -10.4812
lfemur -6.64157 -5.61568 -15.678
ltibia 14.5519
lfoot 0 0
ltoes 0
284
root 8.27833 17.1591 3.31337 -149.762 -40.0089 155.866
lowerback -4.42082 0.318167 -7.95741
upperback -4.25296 0.48884 3.64717
thorax -2.07904 0.430808 8.35102
lowerneck -8.43374 3.20968 -1.01626
upperneck -2.99989 3.929 -10.8105
head 0.725789 1.61824 -3.17802
rclavicle 7.71285e-014 6.36111e-014
rhumerus -2.0746 -28.361 -86.5227
rradius 49.6865
rwrist -52.46
rhand -2.27331 -25.4969
rfingers 7.12502
rthumb 23.4112 -54.0928
lclavicle 7.71285e-014 6.36111e-014
lhumerus 55.2636 20.3694 32.06
lradius 64.2028
lwrist -24.859
lhand -43.2094 -37.4921
lfingers 7.12502
lthumb -16.06 -8.13769
rfemur -9.53736 7.66124 0.542989
rtibia 1.24776
rfoot -10.8879 -12.9192
rtoes -10.7878
lfemur -6.47487 -5.65622 -15.8277
ltibia 14.5047
lfoot 0 0
ltoes 0
285
root 8.27822 17.1594 3.3115 -149.724 -39.966 155.776
lowerback -4.41471 0.354745 -8.05013
upperback -4.24528 0.541344 3.58409
thorax -2.08617 0.459618 8.33791
lowerneck -8.59196 3.11491 -0.964445
upperneck -2.84507 3.82049 -10.857
head 0.800348 1.55269 -3.20636
rclavicle -6.1822e-014 5.08889e-014
rhumerus -2.26229 -28.6075 -86.4581
rradius 49.62
rwrist -52.3076
rhand -1.73366 -25.4828
rfingers 7.12502
rthumb 23.9288 -54.0118
lclavicle -6.1822e-014 5.08889e-014
lhumerus 55.4568 20.2863 32.2926
lradius 64.1786
lwrist -24.7485
lhand -42.8528 -37.5507
lfingers 7.12502
lthumb -15.7166 -8.1689
rfemur -9.46095 7.71494 0.459938
rtibia 1.14408
rfoot -10.8517 -12.9471
rtoes -10.7586
lfemur -6.43842 -5.70574 -15.9308
ltibia 14.5009
lfoot 0 0
ltoes 0
286
root 8.27812 17.1598 3.31088 -149.749 -39.9675 155.822
lowerback -4.42823 0.405273 -8.01578
upperback -4.24468 0.608665 3.54604
thorax -2.09006 0.492149 8.27831
lowerneck -8.55588 3.01654 -1.02594
upperneck -2.91127 3.68666 -10.7427
head 0.760486 1.4933 -3.16102
rclavicle 3.55825e-014 -1.59028e-014
rhumerus -2.53741 -28.8303 -86.3422
rradius 49.6166
rwrist -52.2209
rhand -1.54154 -24.9841
rfingers 7.12502
rthumb 24.113 -53.4888
lclavicle 3.55825e-014 -1.59028e-014
lhumerus 55.6568 20.2266 32.549
lradius 64.1279
lwrist -24.6853
lhand -42.9184 -37.6977
lfingers 7.12502
lthumb -15.7797 -8.32092
rfemur -9.41824 7.84886 0.508962
rtibia 1.04735
rfoot -10.8422 -13.0745
rtoes -10.6782
lfemur -6.43447 -5.70376 -15.886
ltibia 14.5009
lfoot 0 0
ltoes 0
287
root 8.27828 17.1591 3.31031 -149.783 -39.9799 155.892
lowerback -4.46441 0.406908 -7.99245
upperback -4.22113 0.613869 3.56071
thorax -2.04566 0.49155 8.28103
lowerneck -8.41785 2.9401 -1.20994
upperneck -3.16544 3.56341 -10.5771
head 0.638643 1.44859 -3.0761
rclavicle 2.38542e-014 -1.90833e-014
rhumerus -2.81164 -28.7828 -86.202
rradius 49.6677
rwrist -52.3593
rhand -1.9041 -24.4931
rfingers 7.12502
rthumb 23.7654 -53.0435
lclavicle 2.38542e-014 -1.90833e-014
lhumerus 55.7717 20.2638 32.7744
lradius 63.9997
lwrist -24.7544
lhand -43.1591 -37.7036
lfingers 7.12502
lthumb -16.0116 -8.34524
rfemur -9.41521 7.88386 0.576531
rtibia 1.00611
rfoot -10.8082 -13.1283
rtoes -10.5879
lfemur -6.45092 -5.70509 -15.8091
ltibia 14.5099
lfoot 0 0
ltoes 0
288
root 8.28175 17.1591 3.30456 -149.933 -39.9353 155.964
lowerback -4.37569 0.400633 -8.06315
upperback -4.17586 0.605677 3.58394
thorax -2.04814 0.489678 8.34638
lowerneck -8.41699 2.86895 -1.48858
upperneck -3.28435 3.47864 -10.2996
head 0.581465 1.41755 -2.93333
rclavicle -1.66979e-014 -6.36111e-014
rhumerus -2.95283 -28.7272 -86.21
rradius 49.5961
rwrist -52.2865
rhand -2.00154 -24.6535
rfingers 7.12502
rthumb 23.6719 -53.216
lclavicle -1.66979e-014 -6.36111e-014
lhumerus 55.8 20.2897 32.8267
lradius 63.8892
lwrist -24.8084
lhand -43.2397 -37.5483
lfingers 7.12502
lthumb -16.0891 -8.19626
rfemur -9.31364 7.92433 0.667147
rtibia 0.986242
rfoot -10.8008 -13.0761
rtoes -10.0711
lfemur -6.30312 -5.65012 -15.7501
ltibia 14.4492
lfoot 0 0
ltoes 0
289
root 8.28108 17.1573 3.30646 -149.866 -39.9401 155.979
lowerback -4.40444 0.377032 -8.0048
upperback -4.20853 0.572123 3.55045
thorax -2.05747 0.471648 8.27556
lowerneck -8.42721 2.81994 -1.67214
upperneck -3.37788 3.42034 -10.0719
head 0.539938 1.39732 -2.82458
rclavicle 8.34896e-015 0
rhumerus -3.1283 -28.7309 -86.2226
rradius 49.52
rwrist -52.2049
rhand -1.73938 -24.0623
rfingers 7.12502
rthumb 23.9233 -52.592
lclavicle 8.34896e-015 0
lhumerus 55.7776 20.2958 32.7549
lradius 63.8628
lwrist -24.6386
lhand -42.9821 -37.6465
lfingers 7.12502
lthumb -15.8411 -8.27453
rfemur -9.41496 7.82688 0.658653
rtibia 1.01143
rfoot -10.8269 -12.9958
rtoes -9.53327
lfemur -6.43105 -5.64935 -15.7443
ltibia 14.4728
lfoot 0 0
ltoes 0
290
root 8.27967 17.1559 3.30753 -149.811 -39.9079 155.994
lowerback -4.45196 0.340411 -7.97147
upperback -4.21048 0.525163 3.53995
thorax -2.02228 0.445118 8.24404
lowerneck -8.54304 2.81235 -1.76536
upperneck -3.40869 3.41614 -10.0037
head 0.54565 1.39301 -2.78394
rclavicle 1.63003e-014 7.63333e-014
rhumerus -3.09138 -28.7229 -86.2136
rradius 49.1343
rwrist -52.2574
rhand -1.3707 -23.1496
rfingers 7.12502
rthumb 24.2768 -51.6325
lclavicle 1.63003e-014 7.63333e-014
lhumerus 55.6201 20.3957 32.6576
lradius 63.9023
lwrist -24.3904
lhand -42.6234 -37.8346
lfingers 7.12502
lthumb -15.4956 -8.43555
rfemur -9.50297 7.85533 0.633249
rtibia 1.00999
rfoot -10.8865 -12.9903
rtoes -9.28164
lfemur -6.54041 -5.62186 -15.7495
ltibia 14.5401
lfoot 0 0
ltoes 0
291
root 8.27722 17.1552 3.3062 -149.808 -39.8754 156.012
lowerback -4.48841 0.271237 -7.97765
upperback -4.18221 0.437502 3.56201
thorax -1.95469 0.397702 8.26955
lowerneck -8.65012 2.81464 -1.88159
upperneck -3.39583 3.43063 -9.96658
head 0.564888 1.39601 -2.74905
rclavicle 1.35174e-014 -2.8625e-014
rhumerus -2.79704 -28.6482 -86.2741
rradius 48.4114
rwrist -52.28
rhand -0.800063 -22.7252
rfingers 7.12502
rthumb 24.8238 -51.1339
lclavicle 1.35174e-014 -2.8625e-014
lhumerus 55.3645 20.4979 32.5329
lradius 63.9374
lwrist -24.3571
lhand -42.5965 -37.489
lfingers 7.12502
lthumb -15.4698 -8.08795
rfemur -9.52637 7.78053 0.634649
rtibia 1.02743
rfoot -10.8741 -12.9023
rtoes -9.32291
lfemur -6.56917 -5.67868 -15.7613
ltibia 14.6148
lfoot 0 0
ltoes 0
292
root 8.27529 17.1551 3.30272 -149.855 -39.8762 156.033
lowerback -4.46538 0.21995 -7.98443
upperback -4.16197 0.369642 3.57758
thorax -1.93276 0.36283 8.28837
lowerneck -8.39996 2.77159 -1.88799
upperneck -3.6784 3.32403 -10.0363
head 0.428453 1.35653 -2.77785
rclavicle 4.57205e-015 -8.26944e-014
rhumerus -2.75929 -28.5482 -86.3027
rradius 48.089
rwrist -52.1502
rhand -0.612434 -22.6232
rfingers 7.12502
rthumb 25.0036 -51.007
lclavicle 4.57205e-015 -8.26944e-014
lhumerus 55.1688 20.5159 32.4475
lradius 64.0115
lwrist -24.4253
lhand -42.7448 -37.3043
lfingers 7.12502
lthumb -15.6126 -7.91436
rfemur -9.46921 7.6608 0.684742
rtibia 1.04487
rfoot -10.7673 -12.8182
rtoes -9.77484
lfemur -6.5295 -5.74206 -15.7557
ltibia 14.6338
lfoot 0 0
ltoes 0
